<svg width="60" height="60" viewBox="0 0 60 60" fill="none" xmlns="http://www.w3.org/2000/svg">
<mask id="mask0_4_20" style="mask-type:luminance" maskUnits="userSpaceOnUse" x="0" y="0" width="60" height="60">
<path d="M60 0H0V60H60V0Z" fill="white"/>
</mask>
<g mask="url(#mask0_4_20)">
<path d="M29.9732 0.820315C13.413 0.813618 0 14.2199 0 30.7667C0 43.8515 8.39062 54.9743 20.0758 59.0592C21.6495 59.4542 21.4085 58.336 21.4085 57.5725V52.3828C12.3214 53.4475 11.9531 47.4342 11.3437 46.4297C10.1116 44.327 7.19867 43.7913 8.0692 42.7868C10.1384 41.7222 12.2478 43.0547 14.692 46.664C16.4598 49.2823 19.9085 48.8403 21.6563 48.4052C22.038 46.8315 22.8548 45.4252 23.9798 44.3337C14.5647 42.6462 10.6406 36.9007 10.6406 30.0703C10.6406 26.7557 11.7321 23.7087 13.875 21.2512C12.5089 17.1998 14.0022 13.731 14.2031 13.2154C18.0938 12.8672 22.1383 16.0011 22.4532 16.2489C24.663 15.6529 27.1875 15.3382 30.0133 15.3382C32.8527 15.3382 35.384 15.6663 37.6138 16.269C38.3705 15.6931 42.1205 13.0011 45.7367 13.3293C45.9308 13.8449 47.3907 17.2333 46.1048 21.231C48.2745 23.6953 49.3795 26.769 49.3795 30.0903C49.3795 36.9342 45.4285 42.6863 35.9867 44.3472C36.7953 45.1425 37.4375 46.091 37.8755 47.1372C38.3137 48.1835 38.5388 49.3065 38.538 50.4408V57.9743C38.5915 58.577 38.538 59.173 39.5423 59.173C51.4018 55.1752 59.9397 43.9722 59.9397 30.7735C59.9397 14.2199 46.5202 0.820315 29.9732 0.820315Z" fill="black" fill-opacity="0.85"/>
</g>
</svg>
