<svg width="52" height="52" viewBox="0 0 52 52" fill="none" xmlns="http://www.w3.org/2000/svg">
<path d="M50.709 21.3413H26.5149V31.2855H40.3362C39.7404 34.4998 37.9322 37.2187 35.2069 39.04C32.9032 40.5802 29.9635 41.491 26.5082 41.491C19.8184 41.491 14.1599 36.9708 12.1376 30.8972C11.6287 29.357 11.334 27.7097 11.334 26.0155C11.334 24.3213 11.6287 22.674 12.1376 21.1338C14.1667 15.0668 19.825 10.5467 26.5149 10.5467C30.2849 10.5467 33.6667 11.8459 36.3319 14.3905L43.6979 7.01772C39.2447 2.86594 33.439 0.321289 26.5149 0.321289C16.4769 0.321289 7.79163 6.08022 3.56618 14.4775C1.82511 17.9463 0.834045 21.8703 0.834045 26.0222C0.834045 30.174 1.82511 34.0913 3.56618 37.5602C7.79163 45.9575 16.4769 51.7163 26.5149 51.7163C33.4524 51.7163 39.2649 49.4128 43.5104 45.4887C48.3654 41.0155 51.171 34.4262 51.171 26.598C51.171 24.7767 51.0104 23.0288 50.709 21.3413Z" fill="black" fill-opacity="0.85"/>
</svg>
