<svg width="54" height="54" viewBox="0 0 54 54" fill="none" xmlns="http://www.w3.org/2000/svg">
<path d="M26.9983 13.2563C19.3978 13.2563 13.2639 19.3902 13.2639 26.9907C13.2639 34.5912 19.3978 40.725 26.9983 40.725C34.5987 40.725 40.7327 34.5912 40.7327 26.9907C40.7327 19.3902 34.5987 13.2563 26.9983 13.2563ZM26.9983 35.917C22.0832 35.917 18.072 31.9059 18.072 26.9907C18.072 22.0755 22.0832 18.0644 26.9983 18.0644C31.9135 18.0644 35.9247 22.0755 35.9247 26.9907C35.9247 31.9059 31.9135 35.917 26.9983 35.917ZM41.2952 9.49294C39.5207 9.49294 38.0875 10.926 38.0875 12.7005C38.0875 14.475 39.5207 15.9082 41.2952 15.9082C43.0697 15.9082 44.5027 14.4819 44.5027 12.7005C44.5033 12.2792 44.4207 11.8618 44.2597 11.4724C44.0987 11.083 43.8623 10.7292 43.5645 10.4312C43.2665 10.1333 42.9127 9.89703 42.5233 9.73603C42.1338 9.57501 41.7165 9.49241 41.2952 9.49294ZM53.7707 26.9907C53.7707 23.2944 53.8042 19.6314 53.5965 15.9415C53.3888 11.6559 52.4112 7.85231 49.2773 4.71838C46.1367 1.57776 42.3398 0.606775 38.0542 0.399192C34.3577 0.191592 30.6947 0.225075 27.005 0.225075C23.3085 0.225075 19.6457 0.191592 15.9558 0.399192C11.6702 0.606775 7.86659 1.58446 4.73266 4.71838C1.59204 7.85901 0.621058 11.6559 0.413458 15.9415C0.205874 19.638 0.239358 23.301 0.239358 26.9907C0.239358 30.6804 0.205874 34.35 0.413458 38.0399C0.621058 42.3255 1.59872 46.129 4.73266 49.263C7.87329 52.4037 11.6702 53.3747 15.9558 53.5822C19.6523 53.7899 23.3152 53.7564 27.005 53.7564C30.7013 53.7564 34.3643 53.7899 38.0542 53.5822C42.3398 53.3747 46.1433 52.397 49.2773 49.263C52.418 46.1224 53.3888 42.3255 53.5965 38.0399C53.8108 34.35 53.7707 30.6872 53.7707 26.9907ZM47.8777 42.7809C47.3888 43.9997 46.7997 44.9104 45.8555 45.8479C44.9112 46.792 44.0072 47.3814 42.7885 47.8702C39.2662 49.2697 30.9023 48.955 26.9983 48.955C23.0943 48.955 14.7237 49.2697 11.2014 47.8769C9.98266 47.388 9.07194 46.7987 8.13444 45.8545C7.19024 44.9104 6.60096 44.0064 6.11212 42.7875C4.71927 39.2585 5.03399 30.8947 5.03399 26.9907C5.03399 23.0867 4.71927 14.7162 6.11212 11.1938C6.60096 9.97508 7.19024 9.06436 8.13444 8.12686C9.07864 7.18936 9.98266 6.59339 11.2014 6.10454C14.7237 4.71169 23.0943 5.02643 26.9983 5.02643C30.9023 5.02643 39.2728 4.71169 42.7952 6.10454C44.0138 6.59339 44.9247 7.18267 45.8622 8.12686C46.8063 9.07106 47.3957 9.97508 47.8845 11.1938C49.2773 14.7162 48.9625 23.0867 48.9625 26.9907C48.9625 30.8947 49.2773 39.2585 47.8777 42.7809Z" fill="black" fill-opacity="0.85"/>
</svg>
