<svg width="54" height="54" viewBox="0 0 54 54" fill="none" xmlns="http://www.w3.org/2000/svg">
<path d="M49.481 0.208008H4.52113C2.1439 0.208008 0.215332 2.13659 0.215332 4.51382V49.4737C0.215332 51.8508 2.1439 53.7795 4.52113 53.7795H49.481C51.8582 53.7795 53.7868 51.8508 53.7868 49.4737V4.51382C53.7868 2.13659 51.8582 0.208008 49.481 0.208008ZM49.481 49.4937C19.4943 49.487 4.50105 49.4803 4.50105 49.4737C4.50775 19.487 4.51443 4.49373 4.52113 4.49373C34.5077 4.50043 49.501 4.50712 49.501 4.51382C49.4943 34.5005 49.4877 49.4937 49.481 49.4937ZM8.1573 20.2907H16.106V45.8575H8.1573V20.2907ZM12.135 16.795C14.673 16.795 16.7422 14.7325 16.7422 12.1879C16.7422 11.5829 16.623 10.9838 16.3915 10.4249C16.1598 9.86589 15.8205 9.35799 15.3927 8.93019C14.9648 8.50238 14.457 8.16301 13.898 7.93147C13.3391 7.69996 12.74 7.58079 12.135 7.58079C11.5299 7.58079 10.9309 7.69996 10.3719 7.93147C9.81293 8.16301 9.30505 8.50238 8.87723 8.93019C8.44941 9.35799 8.11007 9.86589 7.87853 10.4249C7.647 10.9838 7.52783 11.5829 7.52783 12.1879C7.52113 14.7325 9.58363 16.795 12.135 16.795ZM29.03 33.208C29.03 29.8732 29.6662 26.6455 33.798 26.6455C37.8693 26.6455 37.9297 30.4558 37.9297 33.4223V45.8575H45.8717V31.8352C45.8717 24.9513 44.385 19.6545 36.3425 19.6545C32.4787 19.6545 29.8872 21.7772 28.8225 23.7862H28.7153V20.2907H21.0882V45.8575H29.03V33.208Z" fill="black" fill-opacity="0.85"/>
</svg>
