<svg width="506" height="300" viewBox="0 0 506 300" fill="none" xmlns="http://www.w3.org/2000/svg">
<rect width="506" height="300" fill="#D9D9D9"/>
<path d="M187.94 112.398L188.246 112.452V132H183.764V108.24H189.956L200.612 127.752L200.306 127.824V108.24H204.788V132H198.56L187.94 112.398ZM216.365 132.432C214.793 132.432 213.389 132.096 212.153 131.424C210.929 130.752 209.969 129.834 209.273 128.67C208.577 127.494 208.229 126.156 208.229 124.656C208.229 123.156 208.577 121.818 209.273 120.642C209.969 119.454 210.929 118.518 212.153 117.834C213.389 117.138 214.793 116.79 216.365 116.79C217.949 116.79 219.347 117.138 220.559 117.834C221.771 118.518 222.719 119.454 223.403 120.642C224.087 121.818 224.429 123.156 224.429 124.656C224.429 126.156 224.087 127.494 223.403 128.67C222.719 129.834 221.771 130.752 220.559 131.424C219.347 132.096 217.949 132.432 216.365 132.432ZM216.365 128.634C217.121 128.634 217.775 128.466 218.327 128.13C218.891 127.782 219.323 127.308 219.623 126.708C219.935 126.096 220.091 125.406 220.091 124.638C220.091 123.87 219.935 123.18 219.623 122.568C219.323 121.956 218.891 121.476 218.327 121.128C217.775 120.768 217.121 120.588 216.365 120.588C215.609 120.588 214.949 120.768 214.385 121.128C213.833 121.476 213.401 121.956 213.089 122.568C212.777 123.18 212.621 123.87 212.621 124.638C212.621 125.406 212.777 126.096 213.089 126.708C213.401 127.308 213.833 127.782 214.385 128.13C214.949 128.466 215.609 128.634 216.365 128.634ZM241.35 139.488H236.814V117.222H241.404V119.616C241.548 119.268 241.86 118.872 242.34 118.428C242.82 117.984 243.444 117.6 244.212 117.276C244.992 116.952 245.88 116.79 246.876 116.79C248.28 116.79 249.504 117.132 250.548 117.816C251.592 118.5 252.396 119.436 252.96 120.624C253.536 121.8 253.824 123.132 253.824 124.62C253.824 126.108 253.524 127.446 252.924 128.634C252.324 129.81 251.49 130.74 250.422 131.424C249.354 132.096 248.112 132.432 246.696 132.432C245.628 132.432 244.71 132.24 243.942 131.856C243.174 131.472 242.574 131.04 242.142 130.56C241.71 130.08 241.446 129.702 241.35 129.426V139.488ZM249.342 124.62C249.342 123.792 249.162 123.066 248.802 122.442C248.454 121.806 247.986 121.314 247.398 120.966C246.81 120.606 246.156 120.426 245.436 120.426C244.68 120.426 243.996 120.606 243.384 120.966C242.772 121.326 242.286 121.824 241.926 122.46C241.578 123.084 241.404 123.804 241.404 124.62C241.404 125.436 241.578 126.162 241.926 126.798C242.286 127.422 242.772 127.914 243.384 128.274C243.996 128.622 244.68 128.796 245.436 128.796C246.156 128.796 246.81 128.622 247.398 128.274C247.986 127.926 248.454 127.44 248.802 126.816C249.162 126.18 249.342 125.448 249.342 124.62ZM266.341 116.79C267.349 116.79 268.333 117 269.293 117.42C270.253 117.828 271.039 118.482 271.651 119.382C272.275 120.282 272.587 121.458 272.587 122.91V132H267.997V123.702C267.997 122.49 267.721 121.59 267.169 121.002C266.629 120.414 265.903 120.12 264.991 120.12C264.379 120.12 263.791 120.288 263.227 120.624C262.675 120.948 262.219 121.404 261.859 121.992C261.511 122.568 261.337 123.228 261.337 123.972V132H256.747V107.232H261.337V119.58C261.457 119.172 261.751 118.752 262.219 118.32C262.687 117.888 263.281 117.528 264.001 117.24C264.721 116.94 265.501 116.79 266.341 116.79ZM283.443 132.432C281.871 132.432 280.467 132.096 279.231 131.424C278.007 130.752 277.047 129.834 276.351 128.67C275.655 127.494 275.307 126.156 275.307 124.656C275.307 123.156 275.655 121.818 276.351 120.642C277.047 119.454 278.007 118.518 279.231 117.834C280.467 117.138 281.871 116.79 283.443 116.79C285.027 116.79 286.425 117.138 287.637 117.834C288.849 118.518 289.797 119.454 290.481 120.642C291.165 121.818 291.507 123.156 291.507 124.656C291.507 126.156 291.165 127.494 290.481 128.67C289.797 129.834 288.849 130.752 287.637 131.424C286.425 132.096 285.027 132.432 283.443 132.432ZM283.443 128.634C284.199 128.634 284.853 128.466 285.405 128.13C285.969 127.782 286.401 127.308 286.701 126.708C287.013 126.096 287.169 125.406 287.169 124.638C287.169 123.87 287.013 123.18 286.701 122.568C286.401 121.956 285.969 121.476 285.405 121.128C284.853 120.768 284.199 120.588 283.443 120.588C282.687 120.588 282.027 120.768 281.463 121.128C280.911 121.476 280.479 121.956 280.167 122.568C279.855 123.18 279.699 123.87 279.699 124.638C279.699 125.406 279.855 126.096 280.167 126.708C280.479 127.308 280.911 127.782 281.463 128.13C282.027 128.466 282.687 128.634 283.443 128.634ZM293.316 117.222H295.98V111.156H300.516V117.222H304.008V121.02H300.516V126.366C300.516 127.074 300.63 127.626 300.858 128.022C301.086 128.406 301.446 128.598 301.938 128.598C302.31 128.598 302.616 128.526 302.856 128.382C303.096 128.226 303.24 128.118 303.288 128.058L304.908 131.334C304.836 131.406 304.602 131.532 304.206 131.712C303.822 131.892 303.324 132.054 302.712 132.198C302.112 132.354 301.434 132.432 300.678 132.432C299.322 132.432 298.2 132.042 297.312 131.262C296.424 130.47 295.98 129.246 295.98 127.59V121.02H293.316V117.222ZM314.451 132.432C312.879 132.432 311.475 132.096 310.239 131.424C309.015 130.752 308.055 129.834 307.359 128.67C306.663 127.494 306.315 126.156 306.315 124.656C306.315 123.156 306.663 121.818 307.359 120.642C308.055 119.454 309.015 118.518 310.239 117.834C311.475 117.138 312.879 116.79 314.451 116.79C316.035 116.79 317.433 117.138 318.645 117.834C319.857 118.518 320.805 119.454 321.489 120.642C322.173 121.818 322.515 123.156 322.515 124.656C322.515 126.156 322.173 127.494 321.489 128.67C320.805 129.834 319.857 130.752 318.645 131.424C317.433 132.096 316.035 132.432 314.451 132.432ZM314.451 128.634C315.207 128.634 315.861 128.466 316.413 128.13C316.977 127.782 317.409 127.308 317.709 126.708C318.021 126.096 318.177 125.406 318.177 124.638C318.177 123.87 318.021 123.18 317.709 122.568C317.409 121.956 316.977 121.476 316.413 121.128C315.861 120.768 315.207 120.588 314.451 120.588C313.695 120.588 313.035 120.768 312.471 121.128C311.919 121.476 311.487 121.956 311.175 122.568C310.863 123.18 310.707 123.87 310.707 124.638C310.707 125.406 310.863 126.096 311.175 126.708C311.487 127.308 311.919 127.782 312.471 128.13C313.035 128.466 313.695 128.634 314.451 128.634ZM205.928 160.808C207.356 160.808 208.598 160.97 209.654 161.294C210.722 161.606 211.568 161.942 212.192 162.302C212.828 162.662 213.212 162.896 213.344 163.004L211.148 166.658C210.956 166.502 210.626 166.286 210.158 166.01C209.702 165.722 209.15 165.47 208.502 165.254C207.854 165.026 207.152 164.912 206.396 164.912C205.304 164.912 204.428 165.122 203.768 165.542C203.12 165.95 202.796 166.544 202.796 167.324C202.796 167.852 202.97 168.326 203.318 168.746C203.666 169.154 204.176 169.538 204.848 169.898C205.532 170.258 206.366 170.636 207.35 171.032C208.214 171.368 209.036 171.758 209.816 172.202C210.608 172.646 211.31 173.168 211.922 173.768C212.546 174.368 213.038 175.064 213.398 175.856C213.77 176.648 213.956 177.554 213.956 178.574C213.956 179.714 213.722 180.71 213.254 181.562C212.798 182.414 212.162 183.128 211.346 183.704C210.542 184.28 209.618 184.712 208.574 185C207.53 185.288 206.432 185.432 205.28 185.432C203.72 185.432 202.316 185.252 201.068 184.892C199.832 184.52 198.83 184.124 198.062 183.704C197.294 183.284 196.844 183.014 196.712 182.894L199.016 179.096C199.16 179.204 199.43 179.378 199.826 179.618C200.234 179.858 200.726 180.104 201.302 180.356C201.89 180.608 202.526 180.824 203.21 181.004C203.906 181.184 204.614 181.274 205.334 181.274C206.63 181.274 207.608 181.004 208.268 180.464C208.928 179.924 209.258 179.222 209.258 178.358C209.258 177.71 209.048 177.14 208.628 176.648C208.208 176.156 207.614 175.706 206.846 175.298C206.09 174.878 205.184 174.452 204.128 174.02C203.072 173.576 202.088 173.06 201.176 172.472C200.276 171.872 199.55 171.14 198.998 170.276C198.446 169.4 198.17 168.326 198.17 167.054C198.17 165.794 198.524 164.696 199.232 163.76C199.952 162.824 200.9 162.098 202.076 161.582C203.264 161.066 204.548 160.808 205.928 160.808ZM224.697 185.432C223.125 185.432 221.721 185.096 220.485 184.424C219.261 183.752 218.301 182.834 217.605 181.67C216.909 180.494 216.561 179.156 216.561 177.656C216.561 176.156 216.909 174.818 217.605 173.642C218.301 172.454 219.261 171.518 220.485 170.834C221.721 170.138 223.125 169.79 224.697 169.79C226.281 169.79 227.679 170.138 228.891 170.834C230.103 171.518 231.051 172.454 231.735 173.642C232.419 174.818 232.761 176.156 232.761 177.656C232.761 179.156 232.419 180.494 231.735 181.67C231.051 182.834 230.103 183.752 228.891 184.424C227.679 185.096 226.281 185.432 224.697 185.432ZM224.697 181.634C225.453 181.634 226.107 181.466 226.659 181.13C227.223 180.782 227.655 180.308 227.955 179.708C228.267 179.096 228.423 178.406 228.423 177.638C228.423 176.87 228.267 176.18 227.955 175.568C227.655 174.956 227.223 174.476 226.659 174.128C226.107 173.768 225.453 173.588 224.697 173.588C223.941 173.588 223.281 173.768 222.717 174.128C222.165 174.476 221.733 174.956 221.421 175.568C221.109 176.18 220.953 176.87 220.953 177.638C220.953 178.406 221.109 179.096 221.421 179.708C221.733 180.308 222.165 180.782 222.717 181.13C223.281 181.466 223.941 181.634 224.697 181.634ZM240.096 185H235.524V170.222H240.096V172.616H240.006C240.09 172.328 240.318 171.962 240.69 171.518C241.074 171.074 241.602 170.678 242.274 170.33C242.946 169.97 243.756 169.79 244.704 169.79C245.388 169.79 246.006 169.892 246.558 170.096C247.122 170.288 247.524 170.48 247.764 170.672L245.964 174.416C245.808 174.224 245.514 174.026 245.082 173.822C244.662 173.618 244.134 173.516 243.498 173.516C242.742 173.516 242.112 173.726 241.608 174.146C241.104 174.554 240.726 175.058 240.474 175.658C240.222 176.246 240.096 176.798 240.096 177.314V185ZM253.736 185H249.164V170.222H253.736V172.616H253.646C253.73 172.328 253.958 171.962 254.33 171.518C254.714 171.074 255.242 170.678 255.914 170.33C256.586 169.97 257.396 169.79 258.344 169.79C259.028 169.79 259.646 169.892 260.198 170.096C260.762 170.288 261.164 170.48 261.404 170.672L259.604 174.416C259.448 174.224 259.154 174.026 258.722 173.822C258.302 173.618 257.774 173.516 257.138 173.516C256.382 173.516 255.752 173.726 255.248 174.146C254.744 174.554 254.366 175.058 254.114 175.658C253.862 176.246 253.736 176.798 253.736 177.314V185ZM270.059 180.986L274.433 170.222H278.951L268.853 192.488H264.263L267.665 185L261.527 170.222H266.099L270.059 180.986ZM293.511 185.432C292.707 185.432 292.017 185.144 291.441 184.568C290.865 183.992 290.577 183.302 290.577 182.498C290.577 181.67 290.865 180.968 291.441 180.392C292.017 179.816 292.707 179.528 293.511 179.528C294.339 179.528 295.035 179.816 295.599 180.392C296.175 180.968 296.463 181.67 296.463 182.498C296.463 183.302 296.175 183.992 295.599 184.568C295.035 185.144 294.339 185.432 293.511 185.432ZM293.511 174.596C292.707 174.596 292.017 174.308 291.441 173.732C290.865 173.156 290.577 172.466 290.577 171.662C290.577 170.834 290.865 170.132 291.441 169.556C292.017 168.98 292.707 168.692 293.511 168.692C294.339 168.692 295.035 168.98 295.599 169.556C296.175 170.132 296.463 170.834 296.463 171.662C296.463 172.466 296.175 173.156 295.599 173.732C295.035 174.308 294.339 174.596 293.511 174.596ZM305.099 192.434C304.379 191.558 303.629 190.328 302.849 188.744C302.081 187.172 301.427 185.336 300.887 183.236C300.347 181.136 300.077 178.874 300.077 176.45C300.077 174.578 300.239 172.79 300.563 171.086C300.899 169.382 301.331 167.81 301.859 166.37C302.399 164.918 302.981 163.634 303.605 162.518C304.229 161.402 304.823 160.508 305.387 159.836L308.141 161.114C307.553 161.858 306.941 162.962 306.305 164.426C305.669 165.878 305.129 167.624 304.685 169.664C304.253 171.704 304.037 173.966 304.037 176.45C304.037 178.778 304.235 180.92 304.631 182.876C305.039 184.82 305.537 186.494 306.125 187.898C306.713 189.314 307.277 190.382 307.817 191.102L305.099 192.434Z" fill="black"/>
</svg>
